<?xml version="1.0" standalone="no"?>
<!DOCTYPE svg PUBLIC "-//W3C//DTD SVG 20010904//EN"
 "http://www.w3.org/TR/2001/REC-SVG-20010904/DTD/svg10.dtd">
<svg version="1.0" xmlns="http://www.w3.org/2000/svg"
 width="325.000000pt" height="325.000000pt" viewBox="0 0 325.000000 325.000000"
 preserveAspectRatio="xMidYMid meet">
<metadata>
Created by potrace 1.14, written by Peter Selinger 2001-2017
</metadata>
<g transform="translate(0.000000,325.000000) scale(0.100000,-0.100000)"
fill="#000000" stroke="none">
<path d="M1565 3240 c-27 -4 -70 -11 -95 -14 -79 -12 -273 -66 -305 -85 -5 -3
-15 -6 -22 -7 -29 -5 -239 -117 -311 -167 -106 -73 -120 -86 -232 -197 -113
-113 -125 -127 -207 -248 -133 -195 -222 -431 -258 -677 -12 -84 -14 -393 -2
-440 2 -11 8 -40 13 -65 4 -25 8 -47 9 -50 1 -3 5 -21 9 -40 42 -192 190 -496
308 -631 13 -15 43 -51 68 -80 106 -124 319 -286 486 -367 158 -78 337 -133
509 -158 68 -9 317 -11 385 -3 129 17 146 20 225 40 147 37 188 53 345 132
143 72 272 163 388 275 150 146 212 240 237 356 49 241 -81 476 -315 568 -71
27 -223 34 -294 13 -111 -34 -156 -63 -258 -166 -179 -181 -319 -243 -528
-235 -276 12 -511 200 -586 471 -45 160 -12 368 79 505 179 269 530 365 816
224 85 -42 98 -52 204 -156 124 -121 236 -169 385 -164 136 5 244 50 336 142
100 100 147 222 143 368 -5 150 -53 245 -196 386 -129 128 -242 213 -381 284
-41 22 -82 43 -90 47 -74 40 -265 100 -400 125 -93 17 -384 26 -465 14z"/>
<path d="M1661 1929 c-78 -24 -157 -95 -195 -178 -37 -83 -24 -234 27 -298 75
-95 156 -137 268 -137 95 0 168 32 231 103 140 155 91 399 -98 492 -55 27
-174 36 -233 18z"/>
</g>
</svg>
