<?xml version="1.0" standalone="no"?>
<!DOCTYPE svg PUBLIC "-//W3C//DTD SVG 20010904//EN"
 "http://www.w3.org/TR/2001/REC-SVG-20010904/DTD/svg10.dtd">
<svg version="1.0" xmlns="http://www.w3.org/2000/svg"
 width="282.000000pt" height="282.000000pt" viewBox="0 0 282.000000 282.000000"
 preserveAspectRatio="xMidYMid meet">
<metadata>
Created by potrace 1.14, written by Peter Selinger 2001-2017
</metadata>
<g transform="translate(0.000000,282.000000) scale(0.100000,-0.100000)"
fill="#000000" stroke="none">
<path d="M1355 2809 c-170 -26 -241 -45 -363 -95 -310 -128 -562 -354 -717
-646 -80 -151 -143 -350 -150 -477 -2 -36 -7 -74 -11 -84 -12 -31 5 -277 25
-372 85 -394 314 -722 644 -924 129 -79 321 -159 395 -164 18 -1 32 -5 32 -8
0 -4 21 -10 48 -13 26 -4 56 -10 67 -13 11 -3 101 -5 200 -6 150 0 197 3 280
21 291 64 522 190 730 397 143 144 193 255 181 404 -6 71 -12 91 -49 169 -31
64 -119 147 -196 185 -63 30 -72 32 -181 32 -110 0 -118 -1 -183 -34 -50 -24
-93 -58 -160 -125 -106 -106 -170 -146 -282 -177 -190 -52 -407 10 -541 153
-272 293 -161 757 216 896 48 18 91 25 163 28 54 2 104 7 110 10 7 4 9 3 4 -1
-4 -5 25 -18 65 -30 97 -28 154 -63 252 -155 127 -121 218 -161 353 -155 364
16 542 452 294 719 -74 79 -94 99 -141 138 -57 48 -137 108 -144 108 -3 0 -24
13 -48 29 -43 29 -141 77 -228 111 -48 19 -169 52 -260 70 -67 14 -336 20
-405 9z"/>
<path d="M1464 1675 c-147 -44 -231 -180 -199 -325 12 -54 33 -90 82 -136 171
-164 455 -42 456 196 1 177 -174 314 -339 265z"/>
</g>
</svg>
