<?xml version="1.0" standalone="no"?>
<!DOCTYPE svg PUBLIC "-//W3C//DTD SVG 20010904//EN"
 "http://www.w3.org/TR/2001/REC-SVG-20010904/DTD/svg10.dtd">
<svg version="1.0" xmlns="http://www.w3.org/2000/svg"
 width="350.000000pt" height="350.000000pt" viewBox="0 0 350.000000 350.000000"
 preserveAspectRatio="xMidYMid meet">
<metadata>
Created by potrace 1.14, written by Peter Selinger 2001-2017
</metadata>
<g transform="translate(0.000000,350.000000) scale(0.100000,-0.100000)"
fill="#000000" stroke="none">
<path d="M825 2749 c-259 -50 -483 -193 -631 -404 -128 -184 -186 -384 -179
-615 16 -477 337 -859 803 -955 72 -15 220 -20 307 -10 177 20 392 123 530
252 104 98 205 244 226 326 39 155 -79 309 -236 309 -87 0 -175 -54 -215 -132
-114 -223 -392 -325 -623 -228 -187 78 -308 262 -309 469 0 140 49 256 153
360 94 94 195 139 322 142 82 1 128 -7 210 -37 80 -31 146 -33 203 -7 194 88
194 363 0 455 -117 56 -221 78 -371 81 -77 2 -162 -1 -190 -6z"/>
<path d="M2325 2690 c-288 -57 -532 -243 -671 -510 -33 -64 -39 -84 -39 -140
0 -73 18 -119 66 -168 45 -46 86 -63 159 -69 58 -4 71 -2 120 24 56 29 69 45
149 178 157 259 538 300 755 79 193 -195 194 -497 2 -688 -34 -33 -84 -73
-112 -88 -112 -60 -258 -75 -380 -37 -120 37 -212 20 -281 -51 -109 -112 -84
-297 50 -374 117 -67 403 -95 577 -57 157 35 285 95 403 191 170 137 280 307
339 525 30 110 32 344 4 455 -74 289 -260 522 -524 654 -52 26 -161 64 -212
73 -14 2 -42 8 -64 13 -64 14 -245 9 -341 -10z"/>
<path d="M917 1946 c-59 -22 -88 -47 -117 -104 -52 -100 -10 -223 95 -280 42
-23 140 -21 185 2 123 66 150 234 54 329 -58 58 -146 80 -217 53z"/>
<path d="M2474 1945 c-120 -27 -195 -153 -159 -270 48 -163 247 -213 365 -93
103 105 79 272 -49 342 -59 32 -91 36 -157 21z"/>
</g>
</svg>
