<svg width="23" height="21" viewBox="0 0 23 21" fill="none" xmlns="http://www.w3.org/2000/svg">
<path d="M20.5066 2.83363C19.9959 2.32263 19.3894 1.91727 18.722 1.64071C18.0545 1.36415 17.3391 1.2218 16.6166 1.2218C15.8941 1.2218 15.1787 1.36415 14.5113 1.64071C13.8438 1.91727 13.2374 2.32263 12.7266 2.83363L11.6666 3.89363L10.6066 2.83363C9.57493 1.80194 8.17566 1.22234 6.71662 1.22234C5.25759 1.22234 3.85832 1.80194 2.82662 2.83363C1.79493 3.86532 1.21533 5.26459 1.21533 6.72363C1.21533 8.18266 1.79493 9.58194 2.82662 10.6136L3.88662 11.6736L11.6666 19.4536L19.4466 11.6736L20.5066 10.6136C21.0176 10.1029 21.423 9.49644 21.6995 8.82898C21.9761 8.16152 22.1185 7.44611 22.1185 6.72363C22.1185 6.00114 21.9761 5.28573 21.6995 4.61827C21.423 3.95081 21.0176 3.34438 20.5066 2.83363V2.83363Z" stroke="#003399" stroke-width="1.5" stroke-linecap="round" stroke-linejoin="round"/>
</svg>
