<?xml version="1.0" encoding="UTF-8"?><svg id="Layer_1" xmlns="http://www.w3.org/2000/svg" viewBox="0 0 32 32"><defs><style>.cls-1{fill:none;}.cls-2{fill:#666;}</style></defs><g><path class="cls-1" d="M10.4,10.2c0-3.1,2.5-5.6,5.6-5.6s5.6,2.5,5.6,5.6v.9h1.1v-1c0-3.6-2.9-6.5-6.5-6.5h-.5c-3.6,0-6.5,2.9-6.5,6.5v1h1.1v-.9Z"/><path class="cls-1" d="M16,6.6c-2,0-3.6,1.6-3.6,3.6v.9h7.2v-.9c0-2-1.6-3.6-3.6-3.6Z"/><path class="cls-1" d="M22.4,13.2H9.6c-1.4,0-2.5,1.1-2.5,2.5v3.8c0,4.9,4,8.9,8.9,8.9s8.9-4,8.9-8.9v-3.8c0-1.4-1.1-2.5-2.5-2.5Z"/><path class="cls-2" d="M24.8,11.8v-1.7c0-4.7-3.8-8.5-8.5-8.5h-.5c-4.7,0-8.5,3.8-8.5,8.5v1.7c-1.3,.8-2.1,2.2-2.1,3.8v3.8c0,6,4.9,10.9,10.9,10.9s10.9-4.9,10.9-10.9v-3.8c0-1.6-.9-3-2.1-3.8Zm-15.5-.7v-1c0-3.6,2.9-6.5,6.5-6.5h.5c3.6,0,6.5,2.9,6.5,6.5v1h-1.1v-.9c0-3.1-2.5-5.6-5.6-5.6s-5.6,2.5-5.6,5.6v.9h-1.1Zm10.4,0h-7.2v-.9c0-2,1.6-3.6,3.6-3.6s3.6,1.6,3.6,3.6v.9Zm5.3,8.3c0,4.9-4,8.9-8.9,8.9s-8.9-4-8.9-8.9v-3.8c0-1.4,1.1-2.5,2.5-2.5h12.8c1.4,0,2.5,1.1,2.5,2.5v3.8Z"/></g><path class="cls-2" d="M17.7,19.5c0-1-.8-1.7-1.7-1.7s-1.7,.8-1.7,1.7,.4,1.2,.9,1.5v1.9c0,.4,.3,.8,.8,.8s.8-.3,.8-.8v-1.9c.6-.3,.9-.9,.9-1.5Z"/></svg>