<?xml version="1.0" encoding="UTF-8" standalone="no"?><!DOCTYPE svg PUBLIC "-//W3C//DTD SVG 1.1//EN" "http://www.w3.org/Graphics/SVG/1.1/DTD/svg11.dtd"><svg width="100%" height="100%" viewBox="0 0 38 38" version="1.1" xmlns="http://www.w3.org/2000/svg" xmlns:xlink="http://www.w3.org/1999/xlink" xml:space="preserve" xmlns:serif="http://www.serif.com/" style="fill-rule:evenodd;clip-rule:evenodd;stroke-linejoin:round;stroke-miterlimit:2;"><path d="M37.982,18.991c0,1.568 -3.109,2.707 -3.496,4.153c-0.4,1.497 1.712,4.035 0.954,5.345c-0.769,1.329 -4.03,0.764 -5.109,1.842c-1.078,1.079 -0.513,4.34 -1.842,5.109c-1.31,0.758 -3.848,-1.354 -5.345,-0.954c-1.446,0.387 -2.585,3.496 -4.153,3.496c-1.568,0 -2.707,-3.109 -4.153,-3.496c-1.496,-0.4 -4.035,1.712 -5.345,0.954c-1.329,-0.769 -0.763,-4.03 -1.842,-5.109c-1.079,-1.078 -4.34,-0.513 -5.109,-1.842c-0.758,-1.31 1.354,-3.848 0.954,-5.345c-0.386,-1.446 -3.496,-2.585 -3.496,-4.153c0,-1.568 3.11,-2.707 3.496,-4.153c0.4,-1.496 -1.712,-4.035 -0.954,-5.345c0.769,-1.329 4.031,-0.763 5.109,-1.842c1.079,-1.079 0.513,-4.34 1.842,-5.109c1.311,-0.758 3.849,1.354 5.345,0.954c1.446,-0.386 2.585,-3.496 4.153,-3.496c1.568,0 2.707,3.11 4.153,3.496c1.497,0.4 4.035,-1.712 5.345,-0.954c1.329,0.769 0.764,4.031 1.842,5.109c1.079,1.079 4.34,0.513 5.109,1.842c0.758,1.311 -1.354,3.849 -0.954,5.345c0.387,1.446 3.496,2.585 3.496,4.153Z" style="fill:#1ea1f1;fill-rule:nonzero;"/><path d="M37.982,18.991c0,1.568 -3.109,2.707 -3.496,4.153c-0.4,1.497 1.712,4.035 0.954,5.345c-0.769,1.329 -4.03,0.764 -5.109,1.842c-1.078,1.079 -0.513,4.34 -1.842,5.109c-1.31,0.758 -3.848,-1.354 -5.345,-0.954c-1.446,0.387 -2.585,3.496 -4.153,3.496c-1.568,0 -2.707,-3.109 -4.153,-3.496c-1.496,-0.4 -4.035,1.712 -5.345,0.954c-1.329,-0.769 -0.763,-4.03 -1.842,-5.109c-1.079,-1.078 -4.34,-0.513 -5.109,-1.842c-0.758,-1.31 1.354,-3.848 0.954,-5.345c-0.386,-1.446 -3.496,-2.585 -3.496,-4.153c0,-1.568 3.11,-2.707 3.496,-4.153c0.4,-1.496 -1.712,-4.035 -0.954,-5.345c0.769,-1.329 4.031,-0.763 5.109,-1.842c1.079,-1.079 0.513,-4.34 1.842,-5.109c1.311,-0.758 3.849,1.354 5.345,0.954c1.446,-0.386 2.585,-3.496 4.153,-3.496c1.568,0 2.707,3.11 4.153,3.496c1.497,0.4 4.035,-1.712 5.345,-0.954c1.329,0.769 0.764,4.031 1.842,5.109c1.079,1.079 4.34,0.513 5.109,1.842c0.758,1.311 -1.354,3.849 -0.954,5.345c0.387,1.446 3.496,2.585 3.496,4.153Z" style="fill:#1ea1f1;fill-rule:nonzero;"/><path d="M16.058,25.642l-4.252,-4.251c-0.383,-0.383 -0.383,-1.004 0,-1.387l1.203,-1.202c0.382,-0.383 1.003,-0.383 1.386,0l2.349,2.349l8.145,-8.199c0.381,-0.384 1.002,-0.387 1.386,-0.005l1.206,1.198c0.384,0.382 0.386,1.002 0.005,1.386l-10.04,10.109c-0.382,0.384 -1.005,0.386 -1.388,0.002Z" style="fill:#ededed;fill-rule:nonzero;"/></svg>