<svg width="56" height="56" viewBox="0 0 56 56" fill="none" xmlns="http://www.w3.org/2000/svg">
<rect width="56" height="56" rx="28" transform="matrix(1 0 0 -1 0 56)" fill="white"/>
<path d="M41.4798 3.4588C37.7397 1.40428 33.5794 0.231827 29.3169 0.0310205C25.0544 -0.169786 20.8024 0.606364 16.8857 2.30018C12.969 3.99399 9.4913 6.56065 6.71822 9.80408C3.94513 13.0475 1.95006 16.8819 0.885423 21.0143C-0.179216 25.1467 -0.285254 29.4677 0.575408 33.6474C1.43607 37.827 3.24066 41.7546 5.85131 45.1302C8.46197 48.5057 11.8096 51.2399 15.6385 53.1238C19.4674 55.0077 23.6762 55.9915 27.9435 56C30.6118 55.9973 33.2664 55.6171 35.8283 54.8707C41.1443 53.3243 45.8824 50.236 49.4432 45.9965C53.0039 41.7569 55.2274 36.5566 55.8324 31.0532C56.4374 25.5498 55.3966 19.9906 52.8418 15.0788C50.2871 10.1669 46.333 6.12311 41.4798 3.4588ZM50.4128 40.3009C47.5693 45.4981 43.0112 49.5482 37.5157 51.7607C32.0202 53.9731 25.9275 54.211 20.2762 52.4338C14.6249 50.6566 9.7649 46.9743 6.52477 42.0147C3.28464 37.055 1.86494 31.1251 2.5077 25.2358C3.15046 19.3465 5.81589 13.8624 10.0496 9.71848C14.2833 5.57456 19.8232 3.02735 25.7248 2.51108C31.6264 1.99481 37.5243 3.54145 42.4132 6.88733C47.3021 10.2332 50.8792 15.1712 52.5347 20.8594C53.4837 24.0794 53.7848 27.4556 53.4205 30.7927C53.0563 34.1298 52.0341 37.3615 50.4128 40.3009Z" fill="url(#paint0_linear)"/>
<path d="M28 13.7083V42.2917M13.7083 28H42.2916" stroke="#0A2262" stroke-width="1.5" stroke-linecap="round" stroke-linejoin="round"/>
<defs>
<linearGradient id="paint0_linear" x1="28.0042" y1="0.00501099" x2="28.0042" y2="56" gradientUnits="userSpaceOnUse">
<stop stop-color="#20D9A2"/>
<stop offset="0.265625" stop-color="#2BE0DC"/>
<stop offset="0.510417" stop-color="#2CB1EB"/>
<stop offset="0.760417" stop-color="#1472BB"/>
<stop offset="1" stop-color="#003399"/>
</linearGradient>
</defs>
</svg>
