<svg width="1534" height="1658" viewBox="0 0 1534 1658" fill="none" xmlns="http://www.w3.org/2000/svg">
<path fill-rule="evenodd" clip-rule="evenodd" d="M688.934 1120C625.757 1150.98 554.805 1168.35 479.691 1168.35C350.534 1168.35 233.314 1116.87 147.673 1033.49C67.4284 955.381 14.7958 849.312 5.78564 731.025V730.919C22.3953 590.434 74.3227 460.633 152.558 350.615C280.286 170.971 477.875 44.0086 705.65 9.48682C608.672 52.6832 529.009 127.369 479.515 220.532C444.391 286.649 424.449 362.128 424.449 442.156C424.449 535.936 451.779 623.334 498.945 696.908C506.139 708.016 513.721 718.912 521.727 729.403C511.588 760.698 506.139 794.003 506.139 828.613C506.139 956.492 580.724 1067.3 688.952 1120" fill="#1AA1BF"/>
<mask id="mask0" mask-type="alpha" maskUnits="userSpaceOnUse" x="424" y="0" width="1032" height="730">
<path d="M424.417 0H1455.77V729.401H424.417V0Z" fill="white"/>
</mask>
<g mask="url(#mask0)">
<path fill-rule="evenodd" clip-rule="evenodd" d="M1455.77 282.099C1418.32 269.069 1378.75 260.589 1337.65 257.362C1325.1 256.357 1312.44 255.846 1299.6 255.846C1131.97 255.846 984.685 342.344 900.05 473.062C892.574 484.452 885.679 496.159 879.314 508.271C863.427 505.856 847.329 504.639 831.125 504.639C701.668 504.639 589.72 580.436 537.493 689.749C531.41 702.567 526.032 715.772 521.694 729.419C513.707 718.911 506.107 707.997 498.913 696.907C451.747 623.332 424.417 535.935 424.417 442.172C424.417 362.127 444.341 286.63 479.482 220.531C528.976 127.368 608.64 52.6819 705.618 9.48557C746.613 3.2265 788.525 0 831.125 0C972.537 0 1109.8 35.8265 1230.96 102.243C1314.89 148.067 1391.09 208.612 1455.77 282.081" fill="#0FC2AD"/>
</g>
<path fill-rule="evenodd" clip-rule="evenodd" d="M1433.92 642.201C1393.93 676.723 1346.16 696.505 1297.27 702.059C1217.09 711.35 1133.8 682.083 1076.92 616.671C1035.11 568.538 980.644 534.316 920.623 517.161C907.046 513.317 893.293 510.284 879.328 508.274C885.693 496.162 892.588 484.472 900.081 473.047C984.699 342.348 1131.96 255.867 1299.6 255.867C1312.47 255.867 1325.11 256.36 1337.66 257.365C1378.75 260.592 1418.33 269.072 1455.78 282.102C1457.02 283.407 1458.22 284.817 1459.43 286.228C1550.95 391.609 1539.48 550.96 1433.92 642.201Z" fill="#20D9A2"/>
<mask id="mask1" mask-type="alpha" maskUnits="userSpaceOnUse" x="0" y="731" width="1082" height="902">
<path d="M0 731.021H1081.57V1632.1H0V731.021Z" fill="white"/>
</mask>
<g mask="url(#mask1)">
<path fill-rule="evenodd" clip-rule="evenodd" d="M1081.57 1158.75C1081.57 1413.38 880.032 1621.1 627.378 1632.1C434.955 1583.65 269.052 1467.99 156.293 1311.86C57.9929 1175.71 0 1008.78 0 828.61C0 795.604 1.92193 763.022 5.76579 731.021C14.7759 849.309 67.4086 955.378 147.689 1033.5C233.312 1116.86 350.532 1168.34 479.706 1168.34C554.803 1168.34 625.755 1150.98 688.932 1120C731.849 1140.98 780.127 1152.69 831.137 1152.69C893.908 1152.69 954.123 1134.93 1005.54 1102.12C1028.64 1087.49 1049.88 1069.93 1068.91 1049.55C1076.62 1082.16 1080.95 1115.96 1081.46 1150.78C1081.57 1153.39 1081.57 1156.13 1081.57 1158.75Z" fill="#0D6EB4"/>
</g>
<mask id="mask2" mask-type="alpha" maskUnits="userSpaceOnUse" x="627" y="938" width="908" height="720">
<path d="M627.361 938.223H1534V1657.33H627.361V938.223Z" fill="white"/>
</mask>
<g mask="url(#mask2)">
<path fill-rule="evenodd" clip-rule="evenodd" d="M1477.84 1349.1C1319.22 1545 1083.48 1657.32 831.121 1657.32C760.874 1657.32 692.548 1648.54 627.361 1632.09C880.016 1621.09 1081.55 1413.38 1081.55 1158.75C1081.55 1156.11 1081.55 1153.39 1081.45 1150.78C1080.94 1115.94 1076.58 1082.14 1068.89 1049.54C1074.15 1043.9 1079.23 1038.03 1084.18 1031.98C1171.94 923.585 1331.26 906.73 1439.98 994.233C1488.86 1033.59 1519.14 1087.29 1529.66 1144.42C1542.82 1214.36 1526.22 1289.34 1477.82 1349.1" fill="#1055A8"/>
</g>
<path fill-rule="evenodd" clip-rule="evenodd" d="M997.104 827.886C997.104 916.853 924.758 988.964 835.556 988.964C746.336 988.964 674.008 916.853 674.008 827.886C674.008 738.937 746.319 666.825 835.556 666.825C924.776 666.825 997.086 738.937 997.086 827.886" fill="#003399"/>
</svg>
