<svg xmlns="http://www.w3.org/2000/svg" xmlns:xlink="http://www.w3.org/1999/xlink" viewBox="0 0 153.46 166.44"><defs><style>.cls-1{fill:#faad26;}.cls-2{fill:url(#linear-gradient);}.cls-3{fill:url(#linear-gradient-2);}.cls-4{fill:url(#linear-gradient-3);}.cls-5{fill:url(#linear-gradient-4);}.cls-6{fill:url(#linear-gradient-5);}.cls-7{fill:#500a3d;}</style><linearGradient id="linear-gradient" x1="-1832.44" y1="-925.16" x2="-1865.02" y2="-835.15" gradientTransform="translate(1834.94 884.34) scale(0.94)" gradientUnits="userSpaceOnUse"><stop offset="0" stop-color="#4f274f"/><stop offset="1" stop-color="#bb78b3"/></linearGradient><linearGradient id="linear-gradient-2" x1="-54.03" y1="370.16" x2="39.36" y2="238.43" gradientTransform="translate(95 -193.89) scale(0.94)" gradientUnits="userSpaceOnUse"><stop offset="0" stop-color="#6fc5a2"/><stop offset="0.51" stop-color="#536f6d"/><stop offset="1" stop-color="#500a3d"/></linearGradient><linearGradient id="linear-gradient-3" x1="-50.59" y1="218.44" x2="-22.81" y2="361.67" gradientTransform="translate(94.5 -198.06) scale(0.94)" gradientUnits="userSpaceOnUse"><stop offset="0" stop-color="#ed257a"/><stop offset="0.6" stop-color="#6fafc5"/><stop offset="1" stop-color="#6dcad0"/></linearGradient><linearGradient id="linear-gradient-4" x1="-17.31" y1="366.55" x2="65.06" y2="325.38" gradientTransform="translate(91.1 -196.95) scale(0.94)" gradientUnits="userSpaceOnUse"><stop offset="0" stop-color="#f04c48"/><stop offset="1" stop-color="#f89530" stop-opacity="0.99"/></linearGradient><linearGradient id="linear-gradient-5" x1="-96.96" y1="274.6" x2="7.93" y2="243.73" gradientTransform="translate(90.86 -193.89) scale(0.94)" gradientUnits="userSpaceOnUse"><stop offset="0" stop-color="#ed257a"/><stop offset="0.36" stop-color="#cd1a6f"/><stop offset="1" stop-color="#591b53"/></linearGradient></defs><g id="Layer_2" data-name="Layer 2"><g id="Layer_1-2" data-name="Layer 1"><g id="layer1"><path id="path1464" class="cls-1" d="M99.77,83.3A16.23,16.23,0,0,1,83.54,99.53h0A16.23,16.23,0,1,1,99.77,83.3h0"/><path id="path1454" class="cls-2" d="M84.58.05a82.4,82.4,0,1,0,65.57,132.28,25.88,25.88,0,0,0-43.24-28.14v0a31.18,31.18,0,1,1-.75-41.91,26.1,26.1,0,1,0,41-32.22,9.23,9.23,0,0,0-.88-1.14A83.24,83.24,0,0,0,85.8.05Z"/><path id="path1456" class="cls-3" d="M5.44,89.93c-1.82.11-2.62,4.19-2.62,14.82a83.32,83.32,0,0,0,94.55,60.49,77.72,77.72,0,0,0,55.74-47.83,25.9,25.9,0,0,0-25.77-23.27,26.22,26.22,0,0,0-9.83,2c-3.14,2.29-6.37,4.61-9.67,6.93a13.16,13.16,0,0,0-1,1.2v0a31.07,31.07,0,0,1-15.77,9.67C79.89,120.34,68.51,125.05,58,125.05,25.93,125.05,10.93,89.59,5.44,89.93Z"/><path id="path1458" class="cls-4" d="M56.12,11.32a64.07,64.07,0,0,0-19.67,3.1,83.15,83.15,0,0,0-21.74,116A66.24,66.24,0,0,0,120.31,95.1a25.63,25.63,0,0,0-13.4,9.09v0a31.18,31.18,0,1,1-.75-41.91,26.34,26.34,0,0,0,15.91,10.34C119,38.77,90.63,11.32,56.12,11.32Z"/><path id="path1460" class="cls-5" d="M127.37,94.12a25.86,25.86,0,0,0-20.46,10.07v0a31.2,31.2,0,0,1-23.43,10.63,29.35,29.35,0,0,1-4.61-.34A41,41,0,0,0,98.11,165.1a83.21,83.21,0,0,0,46.79-26,25.89,25.89,0,0,0-17.53-45Z"/><path id="path1462" class="cls-6" d="M83.22,0A83.21,83.21,0,0,0,10.55,42.63,51.19,51.19,0,0,0,53.61,92.76a31.17,31.17,0,0,1,52.5-30.49c.1.14.18.27.29.4,5.2,0,6.4-3.46,6.4-18.25A54.68,54.68,0,0,0,89.88.29C87.69.11,85.48,0,83.22,0Z"/><path id="path1466" class="cls-7" d="M153.25,47.11a26,26,0,0,1-26,26h0a26,26,0,1,1,26-26h0"/></g></g></g></svg>