<svg width="56" height="56" viewBox="0 0 56 56" fill="none" xmlns="http://www.w3.org/2000/svg">
<rect width="56" height="56" rx="28" fill="white"/>
<path d="M41.4798 52.5412C37.7397 54.5957 33.5794 55.7682 29.3169 55.969C25.0544 56.1698 20.8024 55.3936 16.8857 53.6998C12.969 52.006 9.4913 49.4393 6.71822 46.1959C3.94513 42.9525 1.95006 39.1181 0.885423 34.9857C-0.179216 30.8533 -0.285254 26.5323 0.575408 22.3526C1.43607 18.173 3.24066 14.2454 5.85131 10.8698C8.46197 7.49428 11.8096 4.76012 15.6385 2.87622C19.4674 0.992317 23.6762 0.00852585 27.9435 3.8147e-06C30.6118 0.00273514 33.2664 0.382946 35.8283 1.12932C41.1443 2.6757 45.8824 5.76398 49.4432 10.0035C53.0039 14.2431 55.2274 19.4434 55.8324 24.9468C56.4374 30.4502 55.3966 36.0094 52.8418 40.9212C50.2871 45.8331 46.333 49.8769 41.4798 52.5412ZM50.4128 15.6991C47.5693 10.5019 43.0112 6.4518 37.5157 4.23933C32.0202 2.02686 25.9275 1.78896 20.2762 3.56617C14.6249 5.34339 9.7649 9.0257 6.52477 13.9853C3.28464 18.945 1.86494 24.8749 2.5077 30.7642C3.15046 36.6535 5.81589 42.1376 10.0496 46.2815C14.2833 50.4254 19.8232 52.9727 25.7248 53.4889C31.6264 54.0052 37.5243 52.4585 42.4132 49.1127C47.3021 45.7668 50.8792 40.8288 52.5347 35.1406C53.4837 31.9206 53.7848 28.5444 53.4205 25.2073C53.0563 21.8702 52.0341 18.6385 50.4128 15.6991Z" fill="#8597C6"/>
<path d="M40.25 40.25L15.75 15.75M15.75 40.25L40.25 15.75" stroke="#8597C6" stroke-width="1.5" stroke-linecap="round" stroke-linejoin="round"/>
</svg>
