<svg width="40" height="40" viewBox="0 0 40 40" fill="none" xmlns="http://www.w3.org/2000/svg">
<rect width="40" height="40" rx="20" fill="white"/>
<path d="M29.6284 37.5294C26.9569 38.9969 23.9853 39.8344 20.9407 39.9778C17.896 40.1213 14.8589 39.5669 12.0612 38.357C9.26359 37.1471 6.7795 35.3138 4.79873 32.9971C2.81795 30.6804 1.3929 27.9415 0.632445 24.9898C-0.128011 22.0381 -0.203753 18.9516 0.411005 15.9662C1.02576 12.9807 2.31476 10.1753 4.17951 7.76416C6.04426 5.35305 8.43544 3.40008 11.1704 2.05444C13.9053 0.708797 16.9116 0.00608826 19.9596 0C21.8656 0.00195312 23.7617 0.273529 25.5916 0.806656C29.3888 1.91122 32.7731 4.11713 35.3165 7.14537C37.8599 10.1736 39.4482 13.8882 39.8803 17.8192C40.3124 21.7501 39.569 25.721 37.7442 29.2295C35.9193 32.7379 33.095 35.6263 29.6284 37.5294ZM36.0092 11.2136C33.9781 7.50132 30.7223 4.60843 26.7969 3.02809C22.8716 1.44776 18.5196 1.27782 14.483 2.54726C10.4463 3.8167 6.97493 6.44693 4.66055 9.98953C2.34617 13.5321 1.3321 17.7678 1.79121 21.9745C2.25033 26.1811 4.15421 30.0983 7.17828 33.0582C10.2023 36.0182 14.1594 37.8376 18.3748 38.2064C22.5903 38.5751 26.8031 37.4704 30.2952 35.0805C33.7872 32.6906 36.3423 29.1634 37.5248 25.1004C38.2026 22.8004 38.4177 20.3889 38.1575 18.0052C37.8974 15.6216 37.1672 13.3132 36.0092 11.2136Z" fill="url(#paint0_linear)"/>
<path d="M28.75 28.75L11.25 11.25M11.25 28.75L28.75 11.25" stroke="#003399" stroke-width="1.5" stroke-linecap="round" stroke-linejoin="round"/>
<defs>
<linearGradient id="paint0_linear" x1="20.003" y1="39.9964" x2="20.003" y2="1.44691e-06" gradientUnits="userSpaceOnUse">
<stop stop-color="#20D9A2"/>
<stop offset="0.17" stop-color="#0FC2AD"/>
<stop offset="0.18" stop-color="#0FC1AE"/>
<stop offset="0.37" stop-color="#1AA1BF"/>
<stop offset="0.55" stop-color="#1A76AF"/>
<stop offset="0.7" stop-color="#1A57A3"/>
<stop offset="0.87" stop-color="#093F9C"/>
<stop offset="1" stop-color="#003399"/>
</linearGradient>
</defs>
</svg>
