<svg width="60" height="60" viewBox="0 0 60 60" fill="none" xmlns="http://www.w3.org/2000/svg">
<rect width="60" height="60" rx="30" fill="white"/>
<path d="M44.4426 56.2941C40.4354 58.4954 35.978 59.7516 31.411 59.9668C26.844 60.1819 22.2883 59.3503 18.0918 57.5355C13.8954 55.7207 10.1693 52.9707 7.19809 49.4956C4.22693 46.0205 2.08935 41.9123 0.948667 37.4847C-0.192017 33.0571 -0.305629 28.4274 0.616508 23.9492C1.53865 19.4711 3.47213 15.2629 6.26926 11.6462C9.0664 8.02958 12.6532 5.10012 16.7555 3.08165C20.8579 1.06319 25.3674 0.00912857 29.9394 -3.8147e-06C32.7984 0.00292587 35.6426 0.410294 38.3874 1.20998C44.0832 2.86682 49.1597 6.17569 52.9748 10.7181C56.7899 15.2604 59.1722 20.8322 59.8204 26.7287C60.4686 32.6252 59.3535 38.5815 56.6163 43.8442C53.879 49.1069 49.6425 53.4395 44.4426 56.2941ZM54.0138 16.8204C50.9671 11.252 46.0835 6.91264 40.1954 4.54214C34.3074 2.17163 27.7794 1.91674 21.7245 3.8209C15.6695 5.72506 10.4624 9.67039 6.99083 14.9843C3.51925 20.2982 1.99815 26.6517 2.68682 32.9617C3.37549 39.2717 6.23131 45.1474 10.7674 49.5873C15.3035 54.0273 21.2391 56.7564 27.5622 57.3096C33.8854 57.8627 40.2047 56.2056 45.4427 52.6207C50.6808 49.0358 54.5134 43.7452 56.2872 37.6506C57.3039 34.2006 57.6265 30.5833 57.2363 27.0079C56.8461 23.4324 55.7508 19.9698 54.0138 16.8204Z" fill="url(#paint0_linear)"/>
<line x1="20.5355" y1="21" x2="40" y2="40.4645" stroke="#003399" stroke-width="5" stroke-linecap="round" stroke-linejoin="round"/>
<line x1="20" y1="40.4645" x2="39.4645" y2="21" stroke="#003399" stroke-width="5" stroke-linecap="round" stroke-linejoin="round"/>
<defs>
<linearGradient id="paint0_linear" x1="30.0045" y1="59.9946" x2="30.0045" y2="2.17037e-06" gradientUnits="userSpaceOnUse">
<stop stop-color="#20D9A2"/>
<stop offset="0.17" stop-color="#0FC2AD"/>
<stop offset="0.18" stop-color="#0FC1AE"/>
<stop offset="0.37" stop-color="#1AA1BF"/>
<stop offset="0.55" stop-color="#1A76AF"/>
<stop offset="0.7" stop-color="#1A57A3"/>
<stop offset="0.87" stop-color="#093F9C"/>
<stop offset="1" stop-color="#003399"/>
</linearGradient>
</defs>
</svg>
