<svg width="128" height="128" viewBox="0 0 128 128" fill="none" xmlns="http://www.w3.org/2000/svg">
<path fill-rule="evenodd" clip-rule="evenodd" d="M53.5458 86.5011C48.7273 88.8936 43.3156 90.2349 37.5866 90.2349C27.7356 90.2349 18.7951 86.2587 12.2632 79.8192C6.14285 73.7869 2.1285 65.5949 1.44128 56.4592V56.451C2.70813 45.6009 6.66869 35.5761 12.6357 27.079C22.3778 13.2046 37.4481 3.39898 54.8208 0.732758C47.4241 4.06894 41.3481 9.83712 37.5732 17.0324C34.8942 22.1388 33.3732 27.9682 33.3732 34.149C33.3732 41.3919 35.4577 48.1419 39.0552 53.8243C39.6039 54.6822 40.1821 55.5237 40.7927 56.3339C40.0194 58.7509 39.6039 61.3232 39.6039 63.9962C39.6039 73.8727 45.2926 82.431 53.5472 86.5011" fill="#1AA1BF"/>
<mask id="mask0" mask-type="alpha" maskUnits="userSpaceOnUse" x="33" y="0" width="80" height="57">
<path d="M33.3708 0H112.033V56.3337H33.3708V0Z" fill="white"/>
</mask>
<g mask="url(#mask0)">
<path fill-rule="evenodd" clip-rule="evenodd" d="M112.033 21.7873C109.177 20.781 106.159 20.126 103.024 19.8768C102.067 19.7992 101.101 19.7597 100.122 19.7597C87.3367 19.7597 76.1032 26.4402 69.648 36.5359C69.0778 37.4156 68.5519 38.3197 68.0664 39.2552C66.8547 39.0687 65.6269 38.9747 64.391 38.9747C54.5172 38.9747 45.9787 44.8287 41.9953 53.2713C41.5314 54.2612 41.1212 55.2811 40.7903 56.3351C40.1811 55.5235 39.6015 54.6806 39.0528 53.8241C35.4554 48.1417 33.3708 41.3918 33.3708 34.1502C33.3708 27.9681 34.8905 22.1372 37.5708 17.0322C41.3458 9.83696 47.4218 4.06878 54.8184 0.732597C57.9452 0.249192 61.1418 0 64.391 0C75.1766 0 85.6462 2.76698 94.8866 7.89653C101.288 11.4356 107.1 16.1117 112.033 21.7859" fill="#0FC2AD"/>
</g>
<path fill-rule="evenodd" clip-rule="evenodd" d="M110.367 49.5991C107.317 52.2653 103.674 53.7931 99.9443 54.2221C93.8293 54.9397 87.4763 52.6792 83.1378 47.6273C79.9492 43.9099 75.795 41.2668 71.2171 39.9419C70.1816 39.645 69.1326 39.4108 68.0675 39.2555C68.553 38.3201 69.0788 37.4173 69.6504 36.5349C76.1043 26.4405 87.3364 19.7614 100.122 19.7614C101.104 19.7614 102.068 19.7995 103.025 19.8771C106.159 20.1263 109.178 20.7813 112.034 21.7876C112.129 21.8884 112.22 21.9973 112.313 22.1062C119.293 30.2451 118.418 42.5522 110.367 49.5991" fill="#0BE09D"/>
<mask id="mask1" mask-type="alpha" maskUnits="userSpaceOnUse" x="1" y="56" width="83" height="71">
<path d="M1 56.459H83.4926V126.052H1V56.459Z" fill="white"/>
</mask>
<g mask="url(#mask1)">
<path fill-rule="evenodd" clip-rule="evenodd" d="M83.4926 89.494C83.4926 109.16 68.1211 125.202 48.8508 126.052C34.1746 122.31 21.521 113.377 12.9207 101.319C5.42319 90.8039 1 77.9113 1 63.996C1 61.4469 1.14659 58.9305 1.43976 56.459C2.12698 65.5947 6.14133 73.7867 12.2644 79.8204C18.795 86.2586 27.7355 90.2347 37.5878 90.2347C43.3155 90.2347 48.7271 88.8935 53.5457 86.5009C56.819 88.1214 60.5012 89.0255 64.3918 89.0255C69.1795 89.0255 73.7721 87.6543 77.6937 85.1202C79.4554 83.99 81.076 82.6337 82.527 81.0596C83.1147 83.5787 83.4456 86.1891 83.4846 88.8785C83.4926 89.08 83.4926 89.2911 83.4926 89.494Z" fill="#0D6EB4"/>
</g>
<mask id="mask2" mask-type="alpha" maskUnits="userSpaceOnUse" x="48" y="72" width="70" height="56">
<path d="M48.8496 72.4615H118V128H48.8496V72.4615Z" fill="white"/>
</mask>
<g mask="url(#mask2)">
<path fill-rule="evenodd" clip-rule="evenodd" d="M113.717 104.195C101.618 119.325 83.638 128 64.3906 128C59.0327 128 53.8215 127.322 48.8496 126.051C68.1198 125.202 83.4914 109.159 83.4914 89.4937C83.4914 89.2894 83.4914 89.0797 83.4833 88.8782C83.4443 86.1874 83.1121 83.5771 82.5258 81.0593C82.9265 80.6235 83.3139 80.1701 83.6918 79.703C90.385 71.3313 102.537 70.0295 110.829 76.7876C114.557 79.8269 116.866 83.9747 117.669 88.3866C118.672 93.7885 117.407 99.5798 113.715 104.195" fill="#1055A8"/>
</g>
<path fill-rule="evenodd" clip-rule="evenodd" d="M77.0503 63.9399C77.0503 70.8111 71.5324 76.3804 64.7289 76.3804C57.924 76.3804 52.4075 70.8111 52.4075 63.9399C52.4075 57.0701 57.9227 51.5007 64.7289 51.5007C71.5338 51.5007 77.049 57.0701 77.049 63.9399" fill="#003399"/>
</svg>
